<?xml version="1.0" encoding="UTF-8"?>
<svg width="700pt" height="700pt" version="1.1" viewBox="0 0 700 700" xmlns="http://www.w3.org/2000/svg" xmlns:xlink="http://www.w3.org/1999/xlink">
 <defs>
  <symbol id="y" overflow="visible">
   <path d="m4.8438-0.29688c-0.25 0.13672-0.51172 0.23438-0.78125 0.29688-0.27344 0.070312-0.55469 0.10938-0.84375 0.10938-0.875 0-1.5742-0.24219-2.0938-0.73438-0.51172-0.5-0.76562-1.1641-0.76562-2 0-0.84375 0.25391-1.5078 0.76562-2 0.51953-0.5 1.2188-0.75 2.0938-0.75 0.28906 0 0.57031 0.039062 0.84375 0.10938 0.26953 0.0625 0.53125 0.15625 0.78125 0.28125v1.0938c-0.25-0.16406-0.5-0.28906-0.75-0.375-0.24219-0.082031-0.49609-0.125-0.76562-0.125-0.49219 0-0.875 0.15625-1.1562 0.46875-0.27344 0.3125-0.40625 0.74609-0.40625 1.2969 0 0.54297 0.13281 0.96875 0.40625 1.2812 0.28125 0.30469 0.66406 0.45312 1.1562 0.45312 0.26953 0 0.52344-0.035156 0.76562-0.10938 0.25-0.082031 0.5-0.20703 0.75-0.375z"/>
  </symbol>
  <symbol id="c" overflow="visible">
   <path d="m3.5469-2.875c-0.11719-0.050781-0.23047-0.085938-0.34375-0.10938-0.10547-0.03125-0.21094-0.046875-0.3125-0.046875-0.32422 0-0.57422 0.10547-0.75 0.3125-0.17969 0.21094-0.26562 0.50781-0.26562 0.89062v1.8281h-1.2656v-3.9531h1.2656v0.64062c0.15625-0.25 0.33594-0.42969 0.54688-0.54688 0.21875-0.125 0.47266-0.1875 0.76562-0.1875h0.14062c0.050781 0 0.125 0.011719 0.21875 0.03125z"/>
  </symbol>
  <symbol id="a" overflow="visible">
   <path d="m4.5625-1.9844v0.35938h-2.9688c0.03125 0.29297 0.14062 0.51562 0.32812 0.67188 0.1875 0.14844 0.44141 0.21875 0.76562 0.21875 0.26953 0 0.53906-0.035156 0.8125-0.10938 0.28125-0.082031 0.57031-0.20703 0.875-0.375v0.98438c-0.30469 0.10547-0.60547 0.1875-0.90625 0.25-0.29297 0.0625-0.58984 0.09375-0.89062 0.09375-0.71875 0-1.2773-0.17969-1.6719-0.54688-0.39844-0.36328-0.59375-0.875-0.59375-1.5312 0-0.64453 0.19141-1.1484 0.57812-1.5156 0.39453-0.375 0.92969-0.5625 1.6094-0.5625 0.625 0 1.125 0.1875 1.5 0.5625s0.5625 0.875 0.5625 1.5zm-1.3125-0.42188c0-0.23828-0.070312-0.42969-0.20312-0.57812-0.13672-0.15625-0.32031-0.23438-0.54688-0.23438-0.25 0-0.45312 0.074219-0.60938 0.21875-0.14844 0.13672-0.24219 0.33594-0.28125 0.59375z"/>
  </symbol>
  <symbol id="e" overflow="visible">
   <path d="m2.375-1.7812c-0.26172 0-0.46094 0.046875-0.59375 0.14062-0.125 0.085937-0.1875 0.21484-0.1875 0.39062 0 0.15625 0.050781 0.28125 0.15625 0.375 0.10156 0.09375 0.25 0.14062 0.4375 0.14062 0.23828 0 0.4375-0.082031 0.59375-0.25 0.16406-0.17578 0.25-0.39453 0.25-0.65625v-0.14062zm1.9375-0.46875v2.25h-1.2812v-0.59375c-0.16797 0.25-0.35938 0.43359-0.57812 0.54688-0.21094 0.10156-0.46484 0.15625-0.76562 0.15625-0.40625 0-0.74219-0.11719-1-0.35938-0.25-0.23828-0.375-0.55078-0.375-0.9375 0-0.45703 0.15625-0.79688 0.46875-1.0156 0.32031-0.21875 0.82812-0.32812 1.5156-0.32812h0.73438v-0.09375c0-0.20703-0.078125-0.35938-0.23438-0.45312s-0.40234-0.14062-0.73438-0.14062c-0.27344 0-0.52734 0.03125-0.76562 0.09375-0.23047 0.054688-0.44531 0.13281-0.64062 0.23438v-0.95312c0.26953-0.070312 0.53906-0.125 0.8125-0.15625 0.26953-0.03125 0.54688-0.046875 0.82812-0.046875 0.70703 0 1.2188 0.14062 1.5312 0.42188 0.32031 0.28125 0.48438 0.74219 0.48438 1.375z"/>
  </symbol>
  <symbol id="b" overflow="visible">
   <path d="m1.9844-5.0781v1.125h1.3125v0.90625h-1.3125v1.6719c0 0.1875 0.035156 0.3125 0.10938 0.375 0.070312 0.0625 0.21875 0.09375 0.4375 0.09375h0.65625v0.90625h-1.0938c-0.5 0-0.85547-0.10156-1.0625-0.3125-0.21094-0.20703-0.3125-0.5625-0.3125-1.0625v-1.6719h-0.625v-0.90625h0.625v-1.125z"/>
  </symbol>
  <symbol id="j" overflow="visible">
   <path d="m3.2969-3.375v-2.125h1.2812v5.5h-1.2812v-0.57812c-0.17969 0.24219-0.37109 0.41797-0.57812 0.53125-0.21094 0.10156-0.44922 0.15625-0.71875 0.15625-0.49219 0-0.89062-0.19141-1.2031-0.57812-0.3125-0.39453-0.46875-0.89453-0.46875-1.5 0-0.61328 0.15625-1.1133 0.46875-1.5 0.3125-0.38281 0.71094-0.57812 1.2031-0.57812 0.26953 0 0.50781 0.058594 0.71875 0.17188 0.20703 0.10547 0.39844 0.27344 0.57812 0.5zm-0.82812 2.5625c0.26953 0 0.47266-0.097656 0.60938-0.29688 0.14453-0.19531 0.21875-0.48438 0.21875-0.85938 0-0.38281-0.074219-0.67578-0.21875-0.875-0.13672-0.19531-0.33984-0.29688-0.60938-0.29688-0.27344 0-0.48047 0.10156-0.625 0.29688-0.13672 0.19922-0.20312 0.49219-0.20312 0.875 0 0.375 0.066406 0.66406 0.20312 0.85938 0.14453 0.19922 0.35156 0.29688 0.625 0.29688z"/>
  </symbol>
  <symbol id="i" overflow="visible">
   <path d="m2.7188-0.8125c0.26953 0 0.47266-0.097656 0.60938-0.29688 0.14453-0.19531 0.21875-0.48438 0.21875-0.85938 0-0.38281-0.074219-0.67578-0.21875-0.875-0.13672-0.19531-0.33984-0.29688-0.60938-0.29688-0.27344 0-0.48047 0.10547-0.625 0.3125-0.14844 0.19922-0.21875 0.48438-0.21875 0.85938s0.070312 0.66406 0.21875 0.85938c0.14453 0.19922 0.35156 0.29688 0.625 0.29688zm-0.84375-2.5625c0.17578-0.22656 0.36719-0.39453 0.57812-0.5 0.20703-0.11328 0.45312-0.17188 0.73438-0.17188 0.47656 0 0.875 0.19531 1.1875 0.57812 0.32031 0.38672 0.48438 0.88672 0.48438 1.5 0 0.60547-0.16406 1.1055-0.48438 1.5-0.3125 0.38672-0.71094 0.57812-1.1875 0.57812-0.28125 0-0.52734-0.054688-0.73438-0.15625-0.21094-0.11328-0.40234-0.28906-0.57812-0.53125v0.57812h-1.2656v-5.5h1.2656z"/>
  </symbol>
  <symbol id="h" overflow="visible">
   <path d="m0.09375-3.9531h1.2656l1.0625 2.6875 0.90625-2.6875h1.25l-1.6562 4.3281c-0.16797 0.4375-0.36719 0.74219-0.59375 0.92188-0.21875 0.17578-0.51172 0.26562-0.875 0.26562h-0.73438v-0.82812h0.40625c0.20703 0 0.35938-0.039063 0.45312-0.10938 0.10156-0.0625 0.17969-0.18359 0.23438-0.35938l0.03125-0.10938z"/>
  </symbol>
  <symbol id="g" overflow="visible">
   <path d="m2.0312-4.25v3.2188h0.48438c0.55078 0 0.97266-0.13281 1.2656-0.40625 0.28906-0.28125 0.4375-0.67969 0.4375-1.2031 0-0.51953-0.14844-0.91406-0.4375-1.1875-0.29297-0.28125-0.71484-0.42188-1.2656-0.42188zm-1.3594-1.0312h1.4219c0.80078 0 1.3945 0.058594 1.7812 0.17188 0.39453 0.11719 0.73438 0.3125 1.0156 0.59375 0.25 0.23047 0.42969 0.5 0.54688 0.8125 0.125 0.3125 0.1875 0.66797 0.1875 1.0625 0 0.39844-0.0625 0.75-0.1875 1.0625-0.11719 0.3125-0.29688 0.58984-0.54688 0.82812-0.28125 0.27344-0.62109 0.46484-1.0156 0.57812-0.39844 0.11719-0.99219 0.17188-1.7812 0.17188h-1.4219z"/>
  </symbol>
  <symbol id="x" overflow="visible">
   <path d="m3.7031-3.8281v0.95312c-0.27344-0.11328-0.53906-0.19531-0.79688-0.25-0.25-0.0625-0.48438-0.09375-0.70312-0.09375-0.24219 0-0.42188 0.03125-0.54688 0.09375-0.11719 0.0625-0.17188 0.15625-0.17188 0.28125 0 0.10547 0.039063 0.18359 0.125 0.23438 0.09375 0.054687 0.25391 0.09375 0.48438 0.125l0.23438 0.03125c0.64453 0.085937 1.0781 0.21875 1.2969 0.40625 0.22656 0.1875 0.34375 0.48047 0.34375 0.875 0 0.42969-0.15625 0.75-0.46875 0.96875-0.3125 0.20703-0.77734 0.3125-1.3906 0.3125-0.26172 0-0.53125-0.023438-0.8125-0.0625-0.28125-0.042969-0.57031-0.10156-0.85938-0.1875v-0.96875c0.25 0.125 0.50391 0.21875 0.76562 0.28125 0.26953 0.0625 0.53906 0.09375 0.8125 0.09375 0.25 0 0.4375-0.03125 0.5625-0.09375 0.125-0.070313 0.1875-0.17578 0.1875-0.3125 0-0.11328-0.046875-0.19531-0.14062-0.25-0.085938-0.0625-0.25-0.10938-0.5-0.14062l-0.23438-0.015625c-0.5625-0.070313-0.96094-0.20312-1.1875-0.39062-0.21875-0.19531-0.32812-0.48828-0.32812-0.875 0-0.41406 0.14062-0.72266 0.42188-0.92188 0.28906-0.20703 0.73438-0.3125 1.3281-0.3125 0.22656 0 0.47266 0.015625 0.73438 0.046875 0.25781 0.03125 0.53906 0.089844 0.84375 0.17188z"/>
  </symbol>
  <symbol id="w" overflow="visible">
   <path d="m0.60938-3.9531h1.2656v3.9531h-1.2656zm0-1.5469h1.2656v1.0312h-1.2656z"/>
  </symbol>
  <symbol id="v" overflow="visible">
   <path d="m3.2969-0.67188c-0.17969 0.23047-0.37109 0.40234-0.57812 0.51562-0.21094 0.10547-0.44922 0.15625-0.71875 0.15625-0.49219 0-0.89062-0.1875-1.2031-0.5625-0.3125-0.38281-0.46875-0.875-0.46875-1.4688 0-0.58203 0.15625-1.0625 0.46875-1.4375 0.3125-0.38281 0.71094-0.57812 1.2031-0.57812 0.26953 0 0.50781 0.058594 0.71875 0.17188 0.20703 0.10547 0.39844 0.27344 0.57812 0.5v-0.57812h1.2812v3.5469c0 0.63281-0.20312 1.1172-0.60938 1.4531-0.40625 0.34375-0.99219 0.51562-1.75 0.51562-0.25 0-0.49219-0.023438-0.71875-0.0625-0.23047-0.03125-0.46094-0.089844-0.6875-0.17188v-0.98438c0.21875 0.125 0.42969 0.21875 0.64062 0.28125 0.21875 0.0625 0.42969 0.09375 0.64062 0.09375 0.41406 0 0.71875-0.089844 0.90625-0.26562 0.19531-0.17969 0.29688-0.46094 0.29688-0.85938zm-0.82812-2.4688c-0.26172 0-0.46484 0.10156-0.60938 0.29688-0.14844 0.19922-0.21875 0.46875-0.21875 0.8125 0 0.36719 0.066406 0.64062 0.20312 0.82812 0.14453 0.1875 0.35156 0.28125 0.625 0.28125 0.25781 0 0.46094-0.09375 0.60938-0.28125 0.14453-0.19531 0.21875-0.47266 0.21875-0.82812 0-0.34375-0.074219-0.61328-0.21875-0.8125-0.14844-0.19531-0.35156-0.29688-0.60938-0.29688z"/>
  </symbol>
  <symbol id="f" overflow="visible">
   <path d="m4.5781-2.4062v2.4062h-1.2656v-1.8438c0-0.34375-0.011719-0.57812-0.03125-0.70312-0.011719-0.13281-0.03125-0.23438-0.0625-0.29688-0.054688-0.070312-0.125-0.12891-0.21875-0.17188-0.085938-0.050781-0.17969-0.078125-0.28125-0.078125-0.26172 0-0.46875 0.10547-0.625 0.3125-0.14844 0.19922-0.21875 0.47656-0.21875 0.82812v1.9531h-1.2656v-3.9531h1.2656v0.57812c0.1875-0.22656 0.38281-0.39453 0.59375-0.5 0.21875-0.11328 0.45703-0.17188 0.71875-0.17188 0.45703 0 0.80078 0.14062 1.0312 0.42188 0.23828 0.27344 0.35938 0.67969 0.35938 1.2188z"/>
  </symbol>
  <symbol id="u" overflow="visible">
   <path d="m0.67188-5.2812h1.3594v2.0156h2v-2.0156h1.3594v5.2812h-1.3594v-2.2344h-2v2.2344h-1.3594z"/>
  </symbol>
  <symbol id="t" overflow="visible">
   <path d="m0.25-3.9531h1.2344l0.65625 2.7188 0.67188-2.7188h1.0625l0.65625 2.7031 0.67188-2.7031h1.2344l-1.0469 3.9531h-1.375l-0.67188-2.7188-0.67188 2.7188h-1.375z"/>
  </symbol>
  <symbol id="s" overflow="visible">
   <path d="m0.60938-5.5h1.2656v3l1.4531-1.4531h1.4688l-1.9375 1.8125 2.0938 2.1406h-1.5312l-1.5469-1.6562v1.6562h-1.2656z"/>
  </symbol>
  <symbol id="r" overflow="visible">
   <path d="m3.2188-5.5v0.82812h-0.70312c-0.17969 0-0.30469 0.039063-0.375 0.10938-0.074219 0.0625-0.10938 0.17188-0.10938 0.32812v0.28125h1.0781v0.90625h-1.0781v3.0469h-1.2656v-3.0469h-0.625v-0.90625h0.625v-0.28125c0-0.42578 0.11719-0.74219 0.35938-0.95312 0.23828-0.20703 0.61328-0.3125 1.125-0.3125z"/>
  </symbol>
  <symbol id="d" overflow="visible">
   <path d="m2.4844-3.1406c-0.28125 0-0.49609 0.10156-0.64062 0.29688-0.14844 0.19922-0.21875 0.49219-0.21875 0.875 0 0.375 0.070312 0.66797 0.21875 0.875 0.14453 0.19922 0.35938 0.29688 0.64062 0.29688s0.49219-0.097656 0.64062-0.29688c0.14453-0.20703 0.21875-0.5 0.21875-0.875 0-0.38281-0.074219-0.67578-0.21875-0.875-0.14844-0.19531-0.35938-0.29688-0.64062-0.29688zm0-0.90625c0.6875 0 1.2188 0.18359 1.5938 0.54688 0.38281 0.36719 0.57812 0.875 0.57812 1.5312 0 0.64844-0.19531 1.1562-0.57812 1.5312-0.375 0.36719-0.90625 0.54688-1.5938 0.54688-0.67969 0-1.2109-0.17969-1.5938-0.54688-0.38672-0.375-0.57812-0.88281-0.57812-1.5312 0-0.65625 0.19141-1.1641 0.57812-1.5312 0.38281-0.36328 0.91406-0.54688 1.5938-0.54688z"/>
  </symbol>
  <symbol id="q" overflow="visible">
   <path d="m4.2812-3.2969c0.15625-0.25 0.34375-0.4375 0.5625-0.5625s0.46094-0.1875 0.73438-0.1875c0.44531 0 0.78906 0.14062 1.0312 0.42188 0.23828 0.27344 0.35938 0.67969 0.35938 1.2188v2.4062h-1.2812v-2.0625c0.007812-0.03125 0.015625-0.0625 0.015625-0.09375v-0.14062c0-0.28125-0.042969-0.48438-0.125-0.60938-0.085937-0.125-0.21875-0.1875-0.40625-0.1875-0.24219 0-0.42969 0.10156-0.5625 0.29688-0.125 0.19922-0.1875 0.48438-0.1875 0.85938v1.9375h-1.2812v-2.0625c0-0.4375-0.039063-0.71875-0.10938-0.84375-0.074219-0.125-0.21094-0.1875-0.40625-0.1875-0.24219 0-0.42969 0.10156-0.5625 0.29688-0.125 0.19922-0.1875 0.48047-0.1875 0.84375v1.9531h-1.2812v-3.9531h1.2812v0.57812c0.15625-0.22656 0.33203-0.39453 0.53125-0.5 0.19531-0.11328 0.42188-0.17188 0.67188-0.17188 0.26953 0 0.50781 0.070313 0.71875 0.20312 0.20703 0.125 0.36719 0.30859 0.48438 0.54688z"/>
  </symbol>
  <symbol id="p" overflow="visible">
   <path d="m4.5781-2.4062v2.4062h-1.2656v-1.8438c0-0.34375-0.011719-0.57812-0.03125-0.70312-0.011719-0.13281-0.03125-0.23438-0.0625-0.29688-0.054688-0.070312-0.125-0.12891-0.21875-0.17188-0.085938-0.050781-0.17969-0.078125-0.28125-0.078125-0.26172 0-0.46875 0.10547-0.625 0.3125-0.14844 0.19922-0.21875 0.47656-0.21875 0.82812v1.9531h-1.2656v-5.5h1.2656v2.125c0.1875-0.22656 0.38281-0.39453 0.59375-0.5 0.21875-0.11328 0.45703-0.17188 0.71875-0.17188 0.45703 0 0.80078 0.14062 1.0312 0.42188 0.23828 0.27344 0.35938 0.67969 0.35938 1.2188z"/>
  </symbol>
  <symbol id="o" overflow="visible">
   <path d="m0.67188-5.2812h1.5156l1.9062 3.625v-3.625h1.2969v5.2812h-1.5156l-1.9219-3.625v3.625h-1.2812z"/>
  </symbol>
  <symbol id="n" overflow="visible">
   <path d="m0.5625-1.5469v-2.4062h1.2812v0.39062c0 0.21875-0.007812 0.49219-0.015625 0.8125v0.64062c0 0.32422 0.003906 0.55859 0.015625 0.70312 0.019531 0.13672 0.050781 0.23438 0.09375 0.29688 0.050781 0.085937 0.11719 0.14844 0.20312 0.1875 0.082031 0.042969 0.17969 0.0625 0.29688 0.0625 0.25781 0 0.46094-0.097656 0.60938-0.29688 0.15625-0.20703 0.23438-0.48828 0.23438-0.84375v-1.9531h1.2656v3.9531h-1.2656v-0.57812c-0.19922 0.24219-0.40234 0.41797-0.60938 0.53125-0.21094 0.10156-0.44531 0.15625-0.70312 0.15625-0.46094 0-0.80859-0.14062-1.0469-0.42188-0.24219-0.28125-0.35938-0.69141-0.35938-1.2344z"/>
  </symbol>
  <symbol id="m" overflow="visible">
   <path d="m0.67188-5.2812h2.25c0.66406 0 1.1758 0.15234 1.5312 0.45312 0.36328 0.30469 0.54688 0.73047 0.54688 1.2812 0 0.55469-0.18359 0.98047-0.54688 1.2812-0.35547 0.29297-0.86719 0.4375-1.5312 0.4375h-0.89062v1.8281h-1.3594zm1.3594 1v1.4688h0.75c0.25781 0 0.46094-0.0625 0.60938-0.1875 0.14453-0.13281 0.21875-0.31641 0.21875-0.54688 0-0.23828-0.074219-0.42188-0.21875-0.54688-0.14844-0.125-0.35156-0.1875-0.60938-0.1875z"/>
  </symbol>
  <symbol id="l" overflow="visible">
   <path d="m0.60938-3.9531h1.2656v3.875c0 0.53125-0.13281 0.9375-0.39062 1.2188-0.25 0.28125-0.61719 0.42188-1.0938 0.42188h-0.625v-0.82812h0.21875c0.23828 0 0.39844-0.058594 0.48438-0.17188 0.09375-0.10547 0.14062-0.32031 0.14062-0.64062zm0-1.5469h1.2656v1.0312h-1.2656z"/>
  </symbol>
  <symbol id="k" overflow="visible">
   <path d="m3.7969-3.8281v1.0312c-0.16797-0.125-0.33984-0.21094-0.51562-0.26562-0.16797-0.050781-0.34375-0.078125-0.53125-0.078125-0.35547 0-0.63281 0.10547-0.82812 0.3125-0.19922 0.19922-0.29688 0.48438-0.29688 0.85938 0 0.36719 0.097656 0.65234 0.29688 0.85938 0.19531 0.21094 0.47266 0.3125 0.82812 0.3125 0.19531 0 0.38281-0.03125 0.5625-0.09375 0.17578-0.0625 0.33594-0.14844 0.48438-0.26562v1.0469c-0.19922 0.074219-0.40234 0.125-0.60938 0.15625-0.19922 0.039062-0.39844 0.0625-0.59375 0.0625-0.71875 0-1.2812-0.17969-1.6875-0.54688-0.39844-0.375-0.59375-0.88281-0.59375-1.5312 0-0.65625 0.19531-1.1641 0.59375-1.5312 0.40625-0.36328 0.96875-0.54688 1.6875-0.54688 0.20703 0 0.41016 0.023437 0.60938 0.0625 0.19531 0.03125 0.39453 0.085937 0.59375 0.15625z"/>
  </symbol>
 </defs>
 <path transform="matrix(1.4456 0 0 1.4456 226.76 4.1088e-14)" d="m85.25 8.3494c-19.371 25.87-29.815 57.333-29.75 89.65v263.87c0 5.4366 2.159 10.652 6.004 14.494 3.8451 3.8451 9.0601 6.0067 14.497 6.0067h18.498c5.4366 0 10.652-2.1617 14.497-6.0067 3.8451-3.8424 6.004-9.0574 6.004-14.494v-263.87c0.06485-32.317-10.379-63.78-29.75-89.65z" fill="none" stroke="#000" stroke-miterlimit="10" stroke-width="10"/>
 <path transform="matrix(1.4456 0 0 1.4456 226.76 4.1088e-14)" d="m55.5 243.39-46.149 58.611c-2.8264 3.5911-4.3612 8.0306-4.3503 12.6v34.26c0 4.9934 1.9833 9.7842 5.5149 13.316 3.5316 3.5316 8.3197 5.5149 13.313 5.5149h31.671z" fill="none" stroke="#000" stroke-miterlimit="10" stroke-width="10"/>
 <path transform="matrix(1.4456 0 0 1.4456 226.76 4.1088e-14)" d="m115 243.39 46.149 58.611c2.821 3.583 4.353 8.009 4.3503 12.57v34.26c0 4.9934-1.9833 9.7842-5.5149 13.316-3.5316 3.5289-8.3197 5.5149-13.313 5.5149h-31.671z" fill="none" stroke="#000" stroke-miterlimit="10" stroke-width="10"/>
 <g>
  <use x="226.757812" y="581.683594" xlink:href="#y"/>
  <use x="232.0625" y="581.683594" xlink:href="#c"/>
  <use x="235.628906" y="581.683594" xlink:href="#a"/>
  <use x="240.53125" y="581.683594" xlink:href="#e"/>
  <use x="245.40625" y="581.683594" xlink:href="#b"/>
  <use x="248.863281" y="581.683594" xlink:href="#a"/>
  <use x="253.765625" y="581.683594" xlink:href="#j"/>
  <use x="261.457031" y="581.683594" xlink:href="#i"/>
  <use x="266.628906" y="581.683594" xlink:href="#h"/>
  <use x="273.859375" y="581.683594" xlink:href="#g"/>
  <use x="279.859375" y="581.683594" xlink:href="#a"/>
  <use x="284.761719" y="581.683594" xlink:href="#x"/>
  <use x="289.0625" y="581.683594" xlink:href="#w"/>
  <use x="291.539062" y="581.683594" xlink:href="#v"/>
  <use x="296.714844" y="581.683594" xlink:href="#f"/>
  <use x="301.859375" y="581.683594" xlink:href="#u"/>
  <use x="307.910156" y="581.683594" xlink:href="#e"/>
  <use x="312.789062" y="581.683594" xlink:href="#t"/>
  <use x="319.464844" y="581.683594" xlink:href="#s"/>
  <use x="226.757812" y="588.914063" xlink:href="#r"/>
  <use x="229.902344" y="588.914063" xlink:href="#c"/>
  <use x="233.46875" y="588.914063" xlink:href="#d"/>
  <use x="238.433594" y="588.914063" xlink:href="#q"/>
  <use x="248.480469" y="588.914063" xlink:href="#b"/>
  <use x="251.9375" y="588.914063" xlink:href="#p"/>
  <use x="257.082031" y="588.914063" xlink:href="#a"/>
  <use x="264.503906" y="588.914063" xlink:href="#o"/>
  <use x="270.550781" y="588.914063" xlink:href="#d"/>
  <use x="275.515625" y="588.914063" xlink:href="#n"/>
  <use x="280.664062" y="588.914063" xlink:href="#f"/>
  <use x="288.324219" y="588.914063" xlink:href="#m"/>
  <use x="293.625" y="588.914063" xlink:href="#c"/>
  <use x="297.1875" y="588.914063" xlink:href="#d"/>
  <use x="302.152344" y="588.914063" xlink:href="#l"/>
  <use x="304.632812" y="588.914063" xlink:href="#a"/>
  <use x="309.535156" y="588.914063" xlink:href="#k"/>
  <use x="313.820312" y="588.914063" xlink:href="#b"/>
 </g>
</svg>
